<?xml version="1.0" encoding="iso-8859-1"?>
<!-- Uploaded to: SVG Repo, www.svgrepo.com, Generator: SVG Repo Mixer Tools -->
<svg height="800px" width="800px" version="1.1" id="Layer_1" xmlns="http://www.w3.org/2000/svg" xmlns:xlink="http://www.w3.org/1999/xlink" 
	 viewBox="0 0 512.036 512.036" xml:space="preserve">
<g transform="translate(-1)">
	<path style="fill:#E6594A;" d="M491.175,178.132H455.43c-28.915,0-55.765-15.004-70.916-39.624l-29.965-48.692
		c-9.363-15.23-25.964-24.498-43.832-24.498H133.955c-17.885,0-34.486,9.285-43.85,24.533L46.95,160.108
		c-6.882,11.203-19.092,18.024-32.23,18.024h-0.425c-7.402,0-13.312,5.901-13.295,13.208c0.017,19.17,0.026,54.923,0.035,77.972
		c0,11.976,9.711,21.634,21.686,21.634h2.994c-0.417-0.989-0.981-1.944-1.848-2.803l467.413-0.92
		c7.793-4.591,13.078-12.982,13.078-22.676v-73.233C504.357,184.033,498.456,178.132,491.175,178.132"/>
	<path style="fill:#E0E0E0;" d="M384.513,138.506l-23.674-38.478H129.711c-3.966,0-7.185,3.22-7.185,7.185v37.697
		c0,3.975,3.22,7.185,7.185,7.185H395.17C391.23,147.948,387.577,143.487,384.513,138.506"/>
	<path style="fill:#494949;" d="M244.018,152.098h17.356v-52.068h-17.356V152.098z"/>
	<g>
		<path style="fill:#B73127;" d="M469.645,212.844c-4.79,0-8.678,3.879-8.678,8.678c0,4.799,3.888,8.678,8.678,8.678h34.712v-17.356
			H469.645z"/>
		<path style="fill:#B73127;" d="M44.425,221.522c0-4.799-3.888-8.678-8.678-8.678H1.035H1.017c0,5.571,0,11.385,0.009,17.356h0.009
			h34.712C40.537,230.2,44.425,226.321,44.425,221.522"/>
	</g>
	<path style="fill:#494949;" d="M122.512,228.764L122.512,228.764c1.267,8.218,12.331,9.962,16.08,2.543l0,0
		c4.4-8.721,17.625-4.417,16.063,5.224l0,0c-1.328,8.209,8.643,13.286,14.501,7.394c6.882-6.942,18.137,1.241,13.668,9.928
		c-3.801,7.394,4.122,15.308,11.507,11.507c8.695-4.469,16.87,6.786,9.936,13.668c-5.901,5.858-0.816,15.837,7.385,14.501
		c9.641-1.562,13.945,11.663,5.224,16.072c-7.42,3.74-5.675,14.805,2.543,16.072l0,0c9.659,1.493,9.659,15.403,0,16.896l0,0
		c-8.218,1.267-9.962,12.331-2.543,16.072c8.721,4.408,4.417,17.634-5.224,16.072c-8.201-1.336-13.286,8.643-7.385,14.501
		c6.934,6.882-1.241,18.137-9.936,13.668c-7.385-3.801-15.308,4.113-11.507,11.507c4.469,8.687-6.786,16.861-13.668,9.928
		c-5.858-5.892-15.829-0.816-14.501,7.394c1.562,9.641-11.663,13.945-16.063,5.215l0,0c-3.749-7.42-14.813-5.667-16.08,2.551l0,0
		c-1.493,9.659-15.403,9.659-16.896,0l0,0c-1.267-8.218-12.331-9.971-16.072-2.551c-4.408,8.73-17.634,4.426-16.072-5.215
		c1.336-8.209-8.643-13.286-14.501-7.394c-6.882,6.934-18.137-1.241-13.668-9.928c3.801-7.394-4.113-15.308-11.507-11.507l0,0
		c-8.687,4.469-16.861-6.786-9.928-13.668c5.901-5.858,0.816-15.837-7.394-14.501l0,0c-9.641,1.562-13.937-11.663-5.215-16.072l0,0
		c7.42-3.74,5.667-14.805-2.551-16.072c-9.65-1.493-9.65-15.403,0-16.896c8.218-1.267,9.971-12.331,2.551-16.072l0,0
		c-8.721-4.408-4.426-17.634,5.215-16.072l0,0c8.209,1.336,13.295-8.643,7.394-14.501c-6.934-6.882,1.241-18.137,9.928-13.668l0,0
		c7.394,3.801,15.308-4.113,11.507-11.507c-4.469-8.687,6.786-16.87,13.668-9.928c5.858,5.892,15.837,0.816,14.501-7.394l0,0
		c-1.562-9.641,11.663-13.945,16.072-5.224l0,0c3.74,7.42,14.805,5.675,16.072-2.543
		C107.109,219.105,121.02,219.105,122.512,228.764"/>
	<path style="fill:#A2A2A2;" d="M175.029,333.901c0,33.549-27.197,60.746-60.746,60.746s-60.746-27.197-60.746-60.746
		s27.197-60.746,60.746-60.746S175.029,300.352,175.029,333.901"/>
	<path style="fill:#494949;" d="M408.885,228.764L408.885,228.764c1.267,8.218,12.331,9.962,16.08,2.543l0,0
		c4.4-8.721,17.625-4.417,16.063,5.224l0,0c-1.328,8.209,8.643,13.286,14.501,7.394c6.882-6.942,18.137,1.241,13.668,9.928
		c-3.801,7.394,4.122,15.308,11.507,11.507c8.695-4.469,16.87,6.786,9.936,13.668c-5.901,5.858-0.816,15.837,7.385,14.501
		c9.641-1.562,13.945,11.663,5.224,16.072c-7.42,3.74-5.675,14.805,2.543,16.072l0,0c9.659,1.493,9.659,15.403,0,16.896l0,0
		c-8.218,1.267-9.962,12.331-2.543,16.072c8.721,4.408,4.417,17.634-5.224,16.072c-8.201-1.336-13.286,8.643-7.385,14.501
		c6.934,6.882-1.241,18.137-9.936,13.668c-7.385-3.801-15.308,4.113-11.507,11.507c4.469,8.687-6.786,16.861-13.668,9.928
		c-5.858-5.892-15.829-0.816-14.501,7.394c1.562,9.641-11.663,13.945-16.063,5.215l0,0c-3.749-7.42-14.813-5.667-16.08,2.551l0,0
		c-1.493,9.659-15.403,9.659-16.896,0l0,0c-1.267-8.218-12.331-9.971-16.072-2.551c-4.408,8.73-17.634,4.426-16.072-5.215
		c1.336-8.209-8.643-13.286-14.501-7.394c-6.882,6.934-18.137-1.241-13.668-9.928c3.801-7.394-4.113-15.308-11.507-11.507l0,0
		c-8.687,4.469-16.861-6.786-9.928-13.668c5.901-5.858,0.816-15.837-7.394-14.501l0,0c-9.641,1.562-13.937-11.663-5.215-16.072l0,0
		c7.42-3.74,5.667-14.805-2.551-16.072c-9.65-1.493-9.65-15.403,0-16.896c8.218-1.267,9.971-12.331,2.551-16.072l0,0
		c-8.721-4.408-4.426-17.634,5.215-16.072l0,0c8.209,1.336,13.295-8.643,7.394-14.501c-6.934-6.882,1.241-18.137,9.928-13.668l0,0
		c7.394,3.801,15.308-4.113,11.507-11.507c-4.469-8.687,6.786-16.87,13.668-9.928c5.858,5.892,15.837,0.816,14.501-7.394l0,0
		c-1.562-9.641,11.663-13.945,16.072-5.224l0,0c3.74,7.42,14.805,5.675,16.072-2.543
		C393.482,219.105,407.393,219.105,408.885,228.764"/>
	<path style="fill:#A2A2A2;" d="M461.402,333.901c0,33.549-27.197,60.746-60.746,60.746s-60.746-27.197-60.746-60.746
		s27.197-60.746,60.746-60.746S461.402,300.352,461.402,333.901"/>
	<g>
		<path style="fill:#494949;" d="M131.639,333.901c0,9.589-7.767,17.356-17.356,17.356s-17.356-7.767-17.356-17.356
			c0-9.589,7.767-17.356,17.356-17.356S131.639,324.312,131.639,333.901"/>
		<path style="fill:#494949;" d="M418.012,333.901c0,9.589-7.767,17.356-17.356,17.356c-9.589,0-17.356-7.767-17.356-17.356
			c0-9.589,7.767-17.356,17.356-17.356C410.245,316.545,418.012,324.312,418.012,333.901"/>
	</g>
</g>
</svg>